<svg width="20" height="20" viewBox="0 0 20 20" fill="none" xmlns="http://www.w3.org/2000/svg">
<path d="M17.1091 2.89095C15.2187 1.02912 12.6691 -0.0100054 10.0158 7.26272e-05C7.36258 0.0101506 4.82089 1.06861 2.94475 2.94475C1.06861 4.82089 0.0101506 7.36258 7.26272e-05 10.0158C-0.0100054 12.6691 1.02912 15.2187 2.89095 17.1091C4.78128 18.9709 7.33094 20.01 9.98418 19.9999C12.6374 19.9899 15.1791 18.9314 17.0553 17.0553C18.9314 15.1791 19.9899 12.6374 19.9999 9.98418C20.01 7.33094 18.9709 4.78128 17.1091 2.89095ZM13.4501 12.6169C14.9529 11.2919 16.8636 10.5207 18.8651 10.4312C18.7705 12.4316 17.9999 14.3406 16.6794 15.8461L13.4501 12.6169ZM18.8399 9.25181C16.5357 9.35286 14.3371 10.2465 12.6159 11.7817L10.8337 10.0005L16.6794 4.15386C17.927 5.57792 18.6843 7.36495 18.8399 9.25181ZM9.94616 15.5915C9.53545 16.6274 9.30109 17.7247 9.25282 18.8379C7.36596 18.6823 5.57892 17.9249 4.15487 16.6773L10.0015 10.8317L11.7837 12.6139C10.9996 13.4905 10.3775 14.4994 9.94616 15.5936V15.5915ZM6.54988 7.3831C5.04851 8.70714 3.13973 9.47833 1.13998 9.5688C1.23273 7.56878 2.00196 5.65955 3.32165 4.15386L6.54988 7.3831ZM4.15386 3.32165C5.65998 2.00187 7.56943 1.23234 9.5698 1.13897C9.47936 3.13922 8.70779 5.04843 7.3831 6.54988L4.15386 3.32165ZM10.0548 4.40645C10.4648 3.37043 10.6988 2.27322 10.7472 1.1601C12.6345 1.31561 14.422 2.07336 15.8461 3.32165L10.0005 9.16728L8.21834 7.38511C9.00094 6.50798 9.62264 5.49963 10.0548 4.40645ZM1.1601 10.7462C2.27328 10.6975 3.37051 10.4632 4.40645 10.0528C5.49967 9.62162 6.50807 9.00057 7.38511 8.21834L9.16728 10.0005L3.32165 15.8461C2.07362 14.4223 1.31589 12.6352 1.1601 10.7482V10.7462ZM10.4312 18.8651C10.5214 16.865 11.2926 14.9558 12.6169 13.4541L15.8461 16.6794C14.3406 17.9999 12.4316 18.7705 10.4312 18.8651Z" fill="#0575E6"/>
</svg>
