<svg width="20" height="20" viewBox="0 0 20 20" fill="none" xmlns="http://www.w3.org/2000/svg">
<path d="M9.24558 7.4621V5.40894C8.53055 5.5269 7.85288 5.80999 7.26641 6.23571C6.67993 6.66143 6.20082 7.21805 5.86713 7.86136L7.82024 8.49604C8.16421 7.99959 8.66688 7.63496 9.24558 7.4621Z" fill="#0575E6"/>
<path d="M7.35726 9.93327L5.40023 9.29858C5.29114 10.0152 5.35116 10.7474 5.57548 11.4368C5.7998 12.1261 6.18221 12.7534 6.69217 13.2686L7.89876 11.6088C7.5458 11.1469 7.35542 10.5813 7.35726 9.99998C7.35726 9.97741 7.35726 9.95583 7.35726 9.93327Z" fill="#0575E6"/>
<path d="M11.0523 10.4359C11.2931 9.8548 11.0171 9.18858 10.436 8.94787C9.85486 8.70717 9.18863 8.98312 8.94792 9.56424C8.70722 10.1454 8.98318 10.8116 9.5643 11.0523C10.1454 11.293 10.8116 11.017 11.0523 10.4359Z" fill="#0575E6"/>
<path d="M12.1787 8.49897L14.1328 7.86429C13.7989 7.22113 13.3197 6.66462 12.7333 6.23892C12.1469 5.81323 11.4693 5.53005 10.7543 5.41187V7.46209C11.3333 7.63549 11.8358 8.00127 12.1787 8.49897Z" fill="#0575E6"/>
<path d="M12.6476 9.99998C12.648 10.5818 12.4559 11.1475 12.1012 11.6088L13.3078 13.2686C13.8177 12.7534 14.2002 12.1261 14.4245 11.4368C14.6488 10.7474 14.7088 10.0152 14.5997 9.29858L12.6456 9.93327C12.6466 9.95583 12.6476 9.97741 12.6476 9.99998Z" fill="#0575E6"/>
<path d="M10 12.6477C9.69931 12.6478 9.40075 12.5967 9.11717 12.4966L7.91156 14.1574C8.55938 14.4831 9.27444 14.6528 9.99955 14.6528C10.7247 14.6528 11.4397 14.4831 12.0875 14.1574L10.881 12.4966C10.598 12.5965 10.3001 12.6476 10 12.6477Z" fill="#0575E6"/>
<path d="M9.99994 0C8.02212 0 6.08873 0.586489 4.44424 1.6853C2.79975 2.78412 1.51802 4.3459 0.761147 6.17316C0.0042718 8.00042 -0.193761 10.0111 0.19209 11.9509C0.577942 13.8907 1.53035 15.6725 2.92887 17.0711C4.3274 18.4696 6.10922 19.422 8.04903 19.8078C9.98884 20.1937 11.9995 19.9957 13.8268 19.2388C15.654 18.4819 17.2158 17.2002 18.3146 15.5557C19.4134 13.9112 19.9999 11.9778 19.9999 9.99999C19.9999 7.34783 18.9464 4.80429 17.071 2.92893C15.1956 1.05357 12.6521 0 9.99994 0V0ZM13.6639 14.95C13.6501 14.9617 13.6364 14.9735 13.6217 14.9843C13.605 14.9966 13.5876 15.0081 13.5697 15.0186C12.5276 15.762 11.2795 16.1616 9.99944 16.1616C8.7194 16.1616 7.47128 15.762 6.42921 15.0186C6.41253 15.0078 6.39488 14.997 6.3782 14.9843C6.36152 14.9715 6.34975 14.9617 6.33602 14.95C5.2935 14.1789 4.52082 13.0985 4.128 11.8628C3.73518 10.627 3.74225 9.29883 4.14819 8.06732C4.55414 6.83581 5.33827 5.76376 6.38894 5.00382C7.4396 4.24387 8.70324 3.83478 9.99994 3.83478C11.2966 3.83478 12.5603 4.24387 13.6109 5.00382C14.6616 5.76376 15.4457 6.83581 15.8517 8.06732C16.2576 9.29883 16.2647 10.627 15.8719 11.8628C15.4791 13.0985 14.7064 14.1789 13.6639 14.95Z" fill="#0575E6"/>
</svg>
