<svg width="20" height="20" viewBox="0 0 20 20" fill="none" xmlns="http://www.w3.org/2000/svg">
<path d="M10 20C15.5228 20 20 15.5228 20 10C20 4.47715 15.5228 0 10 0C4.47715 0 0 4.47715 0 10C0 15.5228 4.47715 20 10 20Z" fill="#0575E6"/>
<path d="M16.7401 3.2055C17.4466 3.91333 18.035 4.72977 18.4831 5.62378L16.5139 8.79424L13.7122 9.06683L11.0654 6.221L11.424 3.69414L15.3195 2.11061C15.3377 2.10156 15.3551 2.09096 15.3715 2.07893C15.6948 2.29829 16.0045 2.53701 16.299 2.79379C16.4528 2.92362 16.6 3.06103 16.7401 3.2055ZM4.73696 13.9679L1.079 13.0686C0.794924 12.272 0.622123 11.44 0.565487 10.5961L0.545127 10.2567C0.53168 9.80359 0.549821 9.35006 0.59942 8.89943L3.91126 7.55117L6.06826 8.58386L6.5207 12.3775L4.73696 13.9679ZM5.02426 1.84367C5.97262 1.25234 7.01917 0.83556 8.11441 0.613037L10.4467 3.37517L10.0723 6.04342L6.52861 7.69142L4.35465 6.64516L4.05717 2.5868C4.05717 2.57096 4.04926 2.55739 4.04699 2.54268C4.35694 2.28833 4.68341 2.05481 5.02426 1.84367ZM5.64636 18.3237L5.38281 14.7393L7.1756 13.1444L11.0304 13.9124L11.8538 16.074L9.79634 19.3881C9.63686 19.3881 9.47737 19.3779 9.31902 19.3654C8.03604 19.2753 6.78559 18.9206 5.64636 18.3237ZM16.8442 16.4959L12.7146 15.4779L11.9556 13.4826L13.8592 10.0667L16.6734 9.79299L19.0928 12.6592C18.6599 14.1017 17.8868 15.419 16.8385 16.5004L16.8442 16.4959Z" fill="#F2F2FC"/>
</svg>
