<svg width="22" height="23" viewBox="0 0 22 23" fill="none" xmlns="http://www.w3.org/2000/svg">
<path d="M10.9992 7.54834C9.66026 7.54851 8.35148 7.97893 7.23828 8.78518C6.12508 9.59144 5.25745 10.7373 4.7451 12.0779C4.23275 13.4186 4.09868 14.8937 4.35984 16.3169C4.62101 17.7401 5.26567 19.0474 6.21234 20.0736C8.76978 22.8437 13.23 22.8437 15.786 20.0736C16.7326 19.0474 17.3773 17.7401 17.6385 16.3169C17.8996 14.8937 17.7656 13.4186 17.2532 12.0779C16.7409 10.7373 15.8732 9.59144 14.76 8.78518C13.6468 7.97893 12.3381 7.54851 10.9992 7.54834ZM9.30811 16.7184C9.19695 16.7187 9.08684 16.6951 8.98409 16.6492C8.88133 16.6032 8.78795 16.5357 8.70927 16.4506C8.6306 16.3655 8.56819 16.2644 8.5256 16.1531C8.48302 16.0418 8.4611 15.9226 8.4611 15.8021C8.4611 15.5586 8.55034 15.3251 8.70918 15.153C8.86803 14.9808 9.08347 14.8841 9.30811 14.8841C9.5325 14.8845 9.74755 14.9814 9.90608 15.1535C10.0646 15.3256 10.1536 15.5589 10.1536 15.8021C10.1536 16.0451 10.0646 16.2782 9.90599 16.45C9.74742 16.6219 9.53236 16.7184 9.30811 16.7184ZM10.1536 12.1334V12.1221C10.1534 12.0016 10.1752 11.8823 10.2176 11.7709C10.26 11.6595 10.3222 11.5583 10.4008 11.4731C10.4793 11.3878 10.5726 11.3202 10.6752 11.274C10.7779 11.2279 10.888 11.2041 10.9992 11.2041C11.2238 11.2041 11.4392 11.3008 11.5981 11.473C11.7569 11.6451 11.8462 11.8786 11.8462 12.1221V12.1334C11.8462 12.2539 11.8243 12.3733 11.7817 12.4847C11.7391 12.5961 11.6767 12.6973 11.5981 12.7825C11.5194 12.8677 11.4261 12.9354 11.3233 12.9815C11.2205 13.0276 11.1104 13.0514 10.9992 13.0514C10.888 13.0514 10.7779 13.0276 10.6752 12.9815C10.5726 12.9353 10.4793 12.8677 10.4008 12.7824C10.3222 12.6971 10.26 12.5959 10.2176 12.4846C10.1752 12.3732 10.1534 12.2539 10.1536 12.1334ZM12.6887 16.7184C12.4645 16.7184 12.2494 16.6219 12.0908 16.45C11.9323 16.2782 11.8432 16.0451 11.8432 15.8021C11.8432 15.5589 11.9322 15.3256 12.0907 15.1535C12.2493 14.9814 12.4643 14.8845 12.6887 14.8841C12.9134 14.8841 13.1288 14.9808 13.2876 15.153C13.4465 15.3251 13.5357 15.5586 13.5357 15.8021C13.5357 16.0448 13.4469 16.2777 13.2886 16.4495C13.1304 16.6213 12.9157 16.718 12.6917 16.7184H12.6887Z" fill="#0575E6"/>
<path d="M5.01647 8.39379C6.0732 7.2357 7.39681 6.40545 8.84977 5.98931C10.3027 5.57317 11.832 5.58632 13.2787 6.02741C14.7253 6.46849 16.0366 7.32141 17.0763 8.49753C18.1159 9.67365 18.8459 11.1301 19.1905 12.7154C20.9989 10.5433 21.9999 7.72176 22 4.79622V0.151367H16.9298V2.96349C16.9298 3.08383 16.908 3.20299 16.8655 3.31417C16.823 3.42534 16.7607 3.52636 16.6822 3.61146C16.6037 3.69655 16.5105 3.76405 16.4079 3.8101C16.3053 3.85615 16.1954 3.87985 16.0843 3.87985H4.2306C3.1088 3.88156 2.03342 4.3654 1.24033 5.22524C0.447238 6.08509 0.00118347 7.25073 0 8.46652C0.0042104 9.62841 0.235032 10.7762 0.677324 11.8346C1.11961 12.893 1.76338 13.8381 2.56639 14.6079C2.61858 12.2729 3.49556 10.0486 5.01647 8.39379Z" fill="#0575E6"/>
</svg>
