<svg width="33" height="46" viewBox="0 0 33 46" fill="none" xmlns="http://www.w3.org/2000/svg">
<path d="M18.2961 20.5922C23.9824 20.5922 28.5921 15.9824 28.5921 10.2961C28.5921 4.60971 23.9824 0 18.2961 0C12.6097 0 8 4.60971 8 10.2961C8 15.9824 12.6097 20.5922 18.2961 20.5922Z" fill="#0575E6"/>
<path d="M6.22518 31.1281C9.66325 31.1281 12.4504 28.341 12.4504 24.9029C12.4504 21.4648 9.66325 18.6777 6.22518 18.6777C2.78711 18.6777 0 21.4648 0 24.9029C0 28.341 2.78711 31.1281 6.22518 31.1281Z" fill="#0575E6"/>
<path d="M22.2685 45.1352C28.0211 45.1352 32.6845 40.4718 32.6845 34.7192C32.6845 28.9666 28.0211 24.3032 22.2685 24.3032C16.5159 24.3032 11.8525 28.9666 11.8525 34.7192C11.8525 40.4718 16.5159 45.1352 22.2685 45.1352Z" fill="#0575E6"/>
</svg>
