<svg width="22" height="16" viewBox="0 0 22 16" fill="none" xmlns="http://www.w3.org/2000/svg">
<path d="M18.8586 9.33356C18.3682 9.33808 17.8861 9.46939 17.453 9.71639L16.6145 8.64477C16.9858 8.40323 17.3905 8.22653 17.8135 8.12128C18.1583 8.04195 18.51 8.00161 18.8626 8.00092C19.0961 8.00166 19.3274 7.953 19.5433 7.8577C19.7592 7.76241 19.9556 7.62235 20.1211 7.44553C20.305 7.24498 20.4493 7.00662 20.5453 6.74474C20.6414 6.48286 20.6872 6.20284 20.6801 5.92148C20.6801 2.50795 18.0012 0.000725085 15.1738 0.000725085H14.473C14.3891 -0.0034801 14.3052 0.0106386 14.2265 0.0422273C14.1479 0.0738159 14.076 0.122218 14.0152 0.184505C13.9544 0.246793 13.906 0.321672 13.873 0.404612C13.8399 0.487552 13.8229 0.57683 13.8229 0.667046C13.8229 0.757261 13.8399 0.846539 13.873 0.92948C13.906 1.01242 13.9544 1.0873 14.0152 1.14959C14.076 1.21187 14.1479 1.26028 14.2265 1.29186C14.3052 1.32345 14.3891 1.33757 14.473 1.33337H15.1738C15.3548 1.34061 15.5352 1.36047 15.7139 1.39282V2.68051C15.359 2.72124 15.0136 2.82822 14.6931 2.99663C14.6889 2.99189 14.6844 2.98752 14.6796 2.98358C14.1659 3.24091 13.7278 3.64468 13.413 4.15091L12.0007 6.42756C11.9527 6.50462 11.8904 6.57017 11.8176 6.62009C11.7449 6.67 11.6633 6.7032 11.578 6.71758C10.9534 6.8226 10.3617 7.08849 9.85358 7.49253C9.34544 7.89658 8.93596 8.42675 8.66015 9.03774C9.20965 9.91163 9.50438 10.9415 9.50675 11.9959H8.22402C8.23714 10.9781 7.89379 9.99209 7.26198 9.23327C6.63018 8.47445 5.75601 7.99818 4.81269 7.89883C3.86936 7.79947 2.9257 8.08428 2.16866 8.69682C1.41162 9.30936 0.896444 10.2049 0.725193 11.2061C0.553942 12.2073 0.739114 13.2411 1.24402 14.1026C1.74893 14.9641 2.53674 15.5905 3.45136 15.8576C4.36598 16.1248 5.34068 16.0133 6.18235 15.5452C7.02403 15.077 7.67126 14.2864 7.99582 13.33H13.8519C14.0166 13.33 14.1746 13.2598 14.2911 13.1347C14.4075 13.0096 14.473 12.8399 14.473 12.663C14.4737 12.2846 14.5145 11.9076 14.5945 11.5392C14.7702 10.7636 15.133 10.0514 15.6463 9.47422L16.4848 10.5429C16.0172 11.1355 15.759 11.8862 15.7557 12.663C15.7557 13.3226 15.9379 13.9675 16.2791 14.5159C16.6203 15.0644 17.1054 15.4919 17.6728 15.7443C18.2403 15.9968 18.8647 16.0628 19.4672 15.9341C20.0696 15.8054 20.6229 15.4878 21.0573 15.0214C21.4916 14.5549 21.7874 13.9606 21.9072 13.3137C22.027 12.6667 21.9655 11.9961 21.7305 11.3867C21.4954 10.7772 21.0974 10.2563 20.5867 9.88985C20.0759 9.52337 19.4755 9.32776 18.8613 9.32776L18.8586 9.33356ZM4.50002 14.6656C4.00909 14.6647 3.5294 14.5076 3.12159 14.214C2.71378 13.9205 2.39614 13.5037 2.20882 13.0163C2.0215 12.529 1.9729 11.9929 2.06917 11.4759C2.16544 10.9589 2.40225 10.4842 2.74968 10.1116C3.09711 9.73913 3.53957 9.48558 4.02113 9.38304C4.5027 9.2805 5.00176 9.33356 5.45525 9.53553C5.90875 9.73749 6.29632 10.0793 6.56899 10.5177C6.84166 10.9562 6.98719 11.4716 6.98719 11.9988H5.12114C4.95664 11.9988 4.79886 11.9288 4.68242 11.804C4.56598 11.6792 4.50038 11.5099 4.50002 11.3333C4.50394 11.2431 4.49079 11.1531 4.46138 11.0686C4.43197 10.9841 4.3869 10.9069 4.3289 10.8416C4.2709 10.7763 4.20118 10.7244 4.12395 10.6889C4.04672 10.6534 3.96359 10.6351 3.87958 10.6351C3.79558 10.6351 3.71245 10.6534 3.63522 10.6889C3.55799 10.7244 3.48827 10.7763 3.43027 10.8416C3.37227 10.9069 3.3272 10.9841 3.29779 11.0686C3.26838 11.1531 3.25523 11.2431 3.25914 11.3333C3.2595 11.8635 3.45579 12.3719 3.80491 12.7468C4.15402 13.1217 4.62742 13.3326 5.12114 13.3329H6.63747C6.42128 13.7368 6.10999 14.0726 5.73483 14.3065C5.35967 14.5404 4.93382 14.6642 4.50002 14.6656ZM18.8586 14.6656C18.5272 14.6669 18.2016 14.5727 17.9156 14.3929C17.6296 14.213 17.3938 13.9541 17.2328 13.6431C17.0717 13.3321 16.9912 12.9804 16.9998 12.6246C17.0084 12.2688 17.1057 11.922 17.2815 11.6204L18.3739 13.0864C18.4234 13.1588 18.4861 13.2198 18.5581 13.2655C18.6301 13.3113 18.7101 13.341 18.793 13.3527C18.876 13.3645 18.9603 13.3581 19.041 13.334C19.1216 13.3099 19.1968 13.2686 19.2622 13.2124C19.3276 13.1563 19.3817 13.0866 19.4214 13.0074C19.461 12.9283 19.4854 12.8413 19.4929 12.7518C19.5005 12.6623 19.4912 12.5721 19.4655 12.4865C19.4397 12.401 19.3982 12.3219 19.3433 12.2541L18.2523 10.788C18.5079 10.6921 18.78 10.6574 19.0494 10.6862C19.3188 10.715 19.5792 10.8066 19.8122 10.9547C20.0452 11.1028 20.2453 11.3037 20.3985 11.5435C20.5517 11.7833 20.6542 12.0561 20.699 12.3429C20.7438 12.6296 20.7297 12.9235 20.6578 13.2038C20.5858 13.4841 20.4577 13.7442 20.2824 13.9658C20.1072 14.1874 19.8889 14.3653 19.643 14.4869C19.3971 14.6085 19.1293 14.671 18.8586 14.6699V14.6656Z" fill="#0575E6"/>
<path d="M11.3174 5.12502L12.3801 3.411C12.7196 2.87331 13.1596 2.41747 13.6723 2.07256C12.9853 1.5963 12.1864 1.3398 11.3687 1.33301C10.652 1.33513 9.94674 1.52706 9.31554 1.8918C8.68434 2.25654 8.14664 2.78283 7.75006 3.42405L8.74249 4.06064C9.53909 4.56815 10.4096 4.92797 11.3174 5.12502Z" fill="#0575E6"/>
<path d="M8.10529 5.20612L4.12205 2.66699H1.39724C1.31551 2.6668 1.23456 2.68397 1.15903 2.71752C1.0835 2.75106 1.0149 2.80032 0.957172 2.86245C0.899443 2.92458 0.853727 2.99837 0.822656 3.07955C0.791585 3.16073 0.775773 3.24772 0.776129 3.33549C0.776129 4.22005 1.10332 5.06838 1.68573 5.69385C2.26814 6.31933 3.05806 6.67072 3.88171 6.67072C5.12394 6.67072 6.41207 6.69972 7.79743 7.98741C7.79743 7.97726 7.79743 7.96566 7.80823 7.95551C8.28492 7.14088 8.95143 6.47408 9.74179 6.02107C9.17338 5.80599 8.62539 5.5331 8.10529 5.20612Z" fill="#0575E6"/>
</svg>
