<svg width="21" height="20" viewBox="0 0 21 20" fill="none" xmlns="http://www.w3.org/2000/svg">
<path d="M12.2052 0.95972C9.88173 1.63216 7.50532 2.76275 5.63004 4.63474C3.75476 6.50674 2.62812 8.88614 1.95583 11.2114L1.2663 14.4245C1.12748 15.4009 1.03871 16.3838 1.00034 17.3692C0.981103 17.7194 1.0359 18.0696 1.16117 18.3971C1.28643 18.7246 1.47933 19.0221 1.72729 19.27C1.97525 19.5179 2.27269 19.7107 2.60019 19.8358C2.92769 19.9609 3.27789 20.0156 3.62794 19.9962C4.6169 19.9606 5.6033 19.8731 6.58307 19.7339L9.79923 19.0442C12.1165 18.373 14.4954 17.2411 16.367 15.3692C18.2386 13.4972 19.3702 11.1178 20.0412 8.79747L20.7307 5.58305C20.8699 4.60307 20.9575 3.61645 20.993 2.62727C21.0118 2.27711 20.9565 1.92693 20.8307 1.5996C20.705 1.27226 20.5117 0.975116 20.2634 0.727568C20.0151 0.480019 19.7174 0.287629 19.3897 0.162954C19.062 0.0382786 18.7117 -0.0158783 18.3617 0.00401779C17.3728 0.0407973 16.3865 0.128355 15.4066 0.266343L12.2052 0.95972Z" fill="#0575E6"/>
<path d="M20.7295 5.58673C20.5757 6.67272 20.3453 7.74646 20.0399 8.79991L12.2051 0.959702C13.2584 0.654279 14.3319 0.423809 15.4176 0.27002L20.7295 5.58673Z" fill="#F2F2FC"/>
<path d="M9.79794 19.0477C8.74348 19.3531 7.66874 19.5836 6.58177 19.7374L1.26624 14.4207C1.42016 13.3359 1.65058 12.2634 1.95577 11.2112L9.79794 19.0477Z" fill="#F2F2FC"/>
<path d="M15.6318 7.80846L14.9004 7.0769L15.1467 6.83059C15.2613 6.69896 15.3217 6.52878 15.3158 6.35435C15.3098 6.17993 15.238 6.01424 15.1148 5.89068C14.9916 5.76711 14.8261 5.69487 14.6518 5.68851C14.4774 5.68215 14.3071 5.74215 14.1752 5.85641L13.9289 6.10273L13.1902 5.36871C13.1261 5.30458 13.0501 5.2537 12.9664 5.21896C12.8827 5.18422 12.793 5.16632 12.7024 5.16626C12.6118 5.1662 12.522 5.184 12.4383 5.21863C12.3546 5.25326 12.2785 5.30405 12.2143 5.36809C12.1502 5.43214 12.0994 5.50819 12.0646 5.5919C12.0299 5.67561 12.012 5.76534 12.0119 5.85598C12.0119 5.94661 12.0297 6.03637 12.0643 6.12012C12.0989 6.20388 12.1497 6.27999 12.2137 6.34412L12.9451 7.08306L11.9699 8.05847L11.2385 7.32691C11.1092 7.1974 10.9338 7.12458 10.7508 7.12446C10.5678 7.12435 10.3922 7.19695 10.2627 7.3263C10.1332 7.45564 10.0604 7.63114 10.0603 7.81418C10.0602 7.99722 10.1328 8.17281 10.2621 8.30232L11.0009 9.03388L10.022 10.0044L9.29061 9.26541C9.16113 9.13607 8.98558 9.06346 8.80258 9.06358C8.61958 9.0637 8.44412 9.13652 8.3148 9.26603C8.18548 9.39554 8.1129 9.57113 8.11301 9.75417C8.11313 9.93721 8.18594 10.1127 8.31542 10.2421L9.04681 10.9736L8.07162 11.9502L7.33284 11.2187C7.27016 11.1485 7.19379 11.0919 7.10844 11.0524C7.02308 11.0129 6.93054 10.9912 6.8365 10.9888C6.74247 10.9864 6.64893 11.0032 6.56165 11.0383C6.47436 11.0733 6.39517 11.1259 6.32896 11.1927C6.26274 11.2595 6.21089 11.3392 6.1766 11.4268C6.14231 11.5144 6.1263 11.6081 6.12957 11.7022C6.13283 11.7962 6.15529 11.8886 6.19558 11.9736C6.23586 12.0586 6.29311 12.1345 6.3638 12.1966L7.0952 12.9355L6.84894 13.1818C6.71962 13.3112 6.64697 13.4866 6.64697 13.6695C6.64697 13.8525 6.71962 14.0279 6.84894 14.1572C6.97825 14.2866 7.15365 14.3592 7.33653 14.3592C7.51942 14.3592 7.69481 14.2866 7.82413 14.1572L8.07039 13.9109L8.80178 14.6425C8.86582 14.7065 8.94183 14.7573 9.0255 14.792C9.10916 14.8266 9.19883 14.8445 9.28938 14.8445C9.37994 14.8445 9.4696 14.8266 9.55327 14.792C9.63693 14.7573 9.71294 14.7065 9.77698 14.6425C9.84101 14.5784 9.8918 14.5024 9.92646 14.4187C9.96111 14.335 9.97895 14.2453 9.97895 14.1548C9.97895 14.0642 9.96111 13.9745 9.92646 13.8908C9.8918 13.8071 9.84101 13.7311 9.77698 13.6671L9.04681 12.9355L10.022 11.9502L10.7534 12.6892C10.8168 12.7566 10.893 12.8106 10.9776 12.8479C11.0623 12.8853 11.1535 12.9053 11.246 12.9067C11.3385 12.9081 11.4303 12.8909 11.516 12.8562C11.6018 12.8215 11.6796 12.7698 11.745 12.7044C11.8105 12.639 11.8621 12.5611 11.8968 12.4754C11.9315 12.3896 11.9487 12.2978 11.9473 12.2053C11.9459 12.1128 11.9259 12.0215 11.8885 11.9368C11.8512 11.8522 11.7972 11.7759 11.7298 11.7126L10.9984 10.9798L11.9736 10.0044L12.705 10.7359C12.8345 10.8656 13.0102 10.9385 13.1934 10.9386C13.3766 10.9387 13.5524 10.866 13.6821 10.7365C13.8117 10.607 13.8846 10.4313 13.8847 10.248C13.8848 10.0648 13.8122 9.88895 13.6827 9.75927L12.9439 9.02772L13.9289 8.05231L14.6603 8.78387C14.7244 8.84791 14.8004 8.89872 14.884 8.93338C14.9677 8.96804 15.0574 8.98588 15.1479 8.98588C15.2385 8.98588 15.3281 8.96804 15.4118 8.93338C15.4955 8.89872 15.5715 8.84791 15.6355 8.78387C15.6996 8.71982 15.7503 8.64379 15.785 8.56011C15.8197 8.47643 15.8375 8.38674 15.8375 8.29616C15.8375 8.20559 15.8197 8.1159 15.785 8.03222C15.7503 7.94854 15.6996 7.87251 15.6355 7.80846H15.6318Z" fill="#F2F2FC"/>
</svg>
