<svg width="20" height="20" viewBox="0 0 20 20" fill="none" xmlns="http://www.w3.org/2000/svg">
<path d="M18.3326 1.66477C15.8201 -0.843859 11.3593 -0.476889 8.38954 2.49255C7.17898 3.68856 6.35277 5.21846 6.01659 6.88656L5.34754 10.4383C5.11962 11.6241 4.58669 12.73 3.80127 13.6472L6.34871 16.1943C7.26579 15.4089 8.37199 14.8764 9.55797 14.6495L13.1018 13.9817H13.1162C14.7843 13.6452 16.314 12.8187 17.5095 11.6078C20.4745 8.63718 20.8464 4.177 18.3326 1.66477ZM17.5047 2.49255C17.9306 2.92307 18.2632 3.43667 18.4818 4.00134L16.2617 6.2212L13.7756 3.73544L15.9958 1.51557C16.5605 1.73419 17.0742 2.06676 17.5047 2.49255ZM15.4326 7.05019L12.9465 9.53596L10.4617 7.05019L12.9465 4.57044L15.4326 7.05019ZM14.6625 1.19192L12.9465 2.90765L11.7011 1.66116C12.6358 1.26765 13.6519 1.10663 14.6625 1.19192ZM9.21863 3.32154C9.63772 2.90369 10.1032 2.53513 10.6061 2.22304L12.1186 3.73544L9.63258 6.2212L8.13083 4.72084C8.43844 4.21416 8.80345 3.74462 9.21863 3.32154ZM7.17298 7.10313C7.26378 6.66106 7.398 6.22903 7.57369 5.81333L8.80349 7.05019L7.09958 8.75871C7.04345 8.20644 7.06614 7.64901 7.16697 7.10313H7.17298ZM7.55323 14.0816L5.91792 12.4489C6.15065 11.9277 6.33006 11.3843 6.4534 10.827C6.99435 12.0336 7.96012 12.9992 9.16689 13.5401C8.61029 13.6634 8.06763 13.8428 7.54722 14.0755L7.55323 14.0816ZM8.39556 11.6102C7.9671 11.1816 7.63161 10.6692 7.41004 10.1051L9.63258 7.87798L12.1186 10.3637L9.8961 12.586C9.33202 12.3664 8.81918 12.033 8.38954 11.6066L8.39556 11.6102ZM12.9008 12.8327C12.3547 12.9351 11.7968 12.9594 11.2438 12.9049L12.9465 11.1879L14.1835 12.4236C13.7688 12.602 13.337 12.7379 12.8948 12.8291L12.9008 12.8327ZM16.6816 10.7873C16.2587 11.2007 15.7895 11.5641 15.2834 11.8701L13.7756 10.3637L16.2617 7.87798L17.7743 9.39037C17.4625 9.89343 17.0939 10.3589 16.6756 10.7776L16.6816 10.7873ZM17.0956 7.05741L18.8115 5.34168C18.8957 6.35184 18.7325 7.36729 18.3362 8.30029L17.0956 7.05741Z" fill="#0575E6"/>
<path d="M3.00831 14.5061L5.49438 16.9919L2.48607 19.9998L0 17.5092L3.00831 14.5061Z" fill="#0575E6"/>
</svg>
