<svg width="20" height="20" viewBox="0 0 20 20" fill="none" xmlns="http://www.w3.org/2000/svg">
<path d="M9.99947 0H1.11105C0.816383 0 0.533782 0.149778 0.32542 0.416383C0.117057 0.682989 0 1.04458 0 1.42162L0 7.10811C0 7.48514 0.117057 7.84674 0.32542 8.11335C0.533782 8.37995 0.816383 8.52973 1.11105 8.52973H18.8879C19.1827 8.52973 19.4654 8.37999 19.6739 8.11343C19.8824 7.84686 19.9997 7.48527 20 7.10811V1.42162C19.9997 1.04446 19.8824 0.682868 19.6739 0.416301C19.4654 0.149734 19.1827 -1.70075e-07 18.8879 0L9.99947 0Z" fill="#021B79"/>
<path d="M2.00804e-06 18.5757C-0.000275717 18.7626 0.0282576 18.9477 0.0839688 19.1205C0.13968 19.2933 0.221476 19.4503 0.324674 19.5826C0.427872 19.7149 0.550448 19.8199 0.685385 19.8915C0.820322 19.9631 0.964971 20 1.11105 20H18.8879C19.1827 20 19.4654 19.8502 19.6739 19.5837C19.8824 19.3171 19.9997 18.9555 20 18.5784C19.9997 18.2012 19.8824 17.8396 19.6739 17.573C19.4654 17.3065 19.1827 17.1567 18.8879 17.1567H1.11105C0.816751 17.1567 0.53447 17.3061 0.326168 17.5722C0.117865 17.8382 0.000561521 18.1991 2.00804e-06 18.5757Z" fill="#021B79"/>
<path d="M9.99947 11.3728H1.11105C0.965147 11.3728 0.82067 11.4096 0.685871 11.481C0.551072 11.5525 0.42859 11.6572 0.32542 11.7892C0.222249 11.9212 0.140409 12.0779 0.0845738 12.2504C0.0287382 12.4229 0 12.6077 0 12.7944H0C0 13.1715 0.117057 13.5331 0.32542 13.7997C0.533782 14.0663 0.816383 14.216 1.11105 14.216H18.8879C19.1827 14.216 19.4654 14.0663 19.6739 13.7997C19.8824 13.5332 19.9997 13.1716 20 12.7944C19.9997 12.4173 19.8824 12.0557 19.6739 11.7891C19.4654 11.5225 19.1827 11.3728 18.8879 11.3728H9.99947Z" fill="#021B79"/>
</svg>
