<svg width="20" height="20" viewBox="0 0 20 20" fill="none" xmlns="http://www.w3.org/2000/svg">
<path d="M17.0711 2.92893C15.1957 1.05357 12.6522 -1.97602e-08 10 0C7.34783 1.97602e-08 4.8043 1.05357 2.92893 2.92893C1.05357 4.8043 1.97602e-08 7.34783 0 10C-1.97602e-08 12.6522 1.05357 15.1957 2.92893 17.0711C4.8043 18.9464 7.34783 20 10 20C12.6522 20 15.1957 18.9464 17.0711 17.0711C18.9464 15.1957 20 12.6522 20 10C20 7.34783 18.9464 4.8043 17.0711 2.92893ZM17.9503 6.16482C17.2071 9.29503 15.814 11.6393 13.915 12.9503C13.2034 13.4501 12.3948 13.7948 11.5415 13.9622C11.3887 13.6477 11.2535 13.3249 11.1367 12.9953C10.8383 12.1357 10.6571 11.2397 10.5982 10.3317C12.5864 9.13963 14.0731 7.26491 14.7808 5.05734C15.0083 4.35789 15.1624 3.63667 15.2406 2.90532C16.3942 3.7585 17.324 4.87844 17.9503 6.16932V6.16482ZM3.35394 8.3011C2.6248 8.45887 1.91438 8.69329 1.23453 9.00045C1.38724 7.65719 1.84905 6.36758 2.58376 5.23274C3.84202 4.77973 5.15912 4.51086 6.49426 4.43444C9.11288 4.31189 11.2143 5.06521 12.7468 6.66404C12.0521 7.75144 11.1131 8.66159 10.0045 9.32201C7.99189 8.16592 5.61998 7.80342 3.35394 8.3056V8.3011ZM14.1163 2.19698C14.0823 3.06112 13.9267 3.91616 13.6542 4.73689C13.5563 5.02923 13.4473 5.31256 13.3247 5.58578C12.4404 4.74269 11.3774 4.10974 10.2148 3.73397C8.98187 3.345 7.68789 3.18645 6.39757 3.26624C5.56066 3.31131 4.72925 3.42907 3.91274 3.61816C5.2492 2.34044 6.95381 1.51563 8.7851 1.26056C10.6164 1.00549 12.4815 1.3331 14.1163 2.19698ZM1.18618 10.3339C1.94654 9.92745 2.7603 9.62995 3.60354 9.45019C3.85465 9.39622 4.10388 9.3535 4.35124 9.32201C4.21735 10.4438 4.23702 11.5786 4.40971 12.6951C4.6062 14.003 5.04835 15.2619 5.71283 16.4054C6.13754 17.1258 6.65254 17.7889 7.24533 18.3787C5.53618 17.8142 4.04005 16.7415 2.9569 15.304C1.87375 13.8664 1.25521 12.1325 1.18393 10.3339H1.18618ZM9.64021 18.8194C7.37238 17.3454 6.00292 15.2395 5.57229 12.5568C5.39997 11.4635 5.39012 10.3507 5.54306 9.25455C6.90956 9.27809 8.24714 9.65207 9.4277 10.3407C9.48769 11.3629 9.68705 12.3722 10.0202 13.3405C10.7185 15.3643 11.9508 16.9766 13.6182 18.0549C12.483 18.5652 11.2524 18.8285 10.0079 18.8273C9.87969 18.8273 9.75939 18.8239 9.63796 18.8194H9.64021ZM14.8122 17.4005C13.7478 16.8425 12.8367 16.0317 12.1588 15.0394C12.9985 14.8214 13.794 14.4592 14.5098 13.969C15.549 13.2525 16.4341 12.3349 17.1127 11.2705C17.7474 10.2822 18.2537 9.21715 18.6193 8.10096C19.0071 9.85547 18.8501 11.6866 18.1692 13.3494C17.4882 15.0122 16.3159 16.4276 14.8089 17.4061L14.8122 17.4005Z" fill="#0575E6"/>
</svg>
